<svg width="18" height="30" viewBox="0 0 18 30" fill="none" xmlns="http://www.w3.org/2000/svg">
<path d="M10.6196 30H5.82061C5.01902 30 4.36697 29.3472 4.36697 28.5448V17.7086H1.56714C0.765553 17.7086 0.113495 17.0556 0.113495 16.2534V11.61C0.113495 10.8076 0.765553 10.1548 1.56714 10.1548H4.36697V7.82959C4.36697 5.52406 5.09013 3.56255 6.45803 2.15744C7.83211 0.745926 9.75239 0 12.0113 0L15.6712 0.0059509C16.4714 0.00732422 17.1223 0.660095 17.1223 1.46118V5.7724C17.1223 6.57486 16.4705 7.22763 15.6692 7.22763L13.205 7.22855C12.4535 7.22855 12.2621 7.37938 12.2212 7.42561C12.1537 7.50229 12.0735 7.71904 12.0735 8.31757V10.1546H15.484C15.7407 10.1546 15.9895 10.218 16.2032 10.3374C16.6644 10.5954 16.9511 11.0831 16.9511 11.6103L16.9493 16.2536C16.9493 17.0556 16.2972 17.7084 15.4956 17.7084H12.0735V28.5448C12.0735 29.3472 11.4212 30 10.6196 30ZM6.12377 28.2413H10.3164V16.9212C10.3164 16.3854 10.752 15.9496 11.287 15.9496H15.1925L15.1941 11.9135H11.2867C10.7517 11.9135 10.3164 11.4777 10.3164 10.9419V8.31757C10.3164 7.63046 10.3862 6.84906 10.9042 6.26175C11.5302 5.55176 12.5168 5.46982 13.2045 5.46982L15.3655 5.4689V1.76422L12.0099 1.75873C8.37969 1.75873 6.12377 4.08508 6.12377 7.82959V10.9419C6.12377 11.4775 5.68846 11.9135 5.15346 11.9135H1.8703V15.9496H5.15346C5.68846 15.9496 6.12377 16.3854 6.12377 16.9212V28.2413ZM15.6678 1.76468H15.668H15.6678Z" fill="white"/>
</svg>
